<svg version="1.1" x="0px" y="0px" viewBox="0 0 95 95">
  <polygon
    points="31.6,23.8 23.7,23.8 23.7,15.9 18.7,15.9 18.7,23.8 10.9,23.8 10.9,28.8 18.7,28.8 18.7,36.6 23.7,36.6      23.7,28.8 31.6,28.8    " />
  <path
    d="M25.1,42.7l-15.3,39c-0.4,1-0.2,2.2,0.6,2.9l1.9,1.9l27-27c-1.2-2.1-1-4.9,0.9-6.7c2.1-2.1,5.6-2.1,7.8,0      c2.1,2.1,2.1,5.6,0,7.8c-1.8,1.8-4.6,2.1-6.7,0.9l-27,27l1.9,1.9c0.8,0.8,1.9,1,2.9,0.6l39-15.3c3.2-1.2,5.6-3.8,6.7-7.1      l7.1-21.2c0.6-1.7,0.1-3.5-1.1-4.8L58.2,30.1c-1.3-1.3-3.1-1.7-4.8-1.1L32.2,36C28.9,37.1,26.4,39.5,25.1,42.7z" />
  <path
    d="M62.5,11.2l27.1,27.1c0.5,0.5,0.5,1.3,0,1.8l-6.4,6.4c-1.2,1.2-3.3,1.2-4.5,0L54.3,22.1c-1.2-1.2-1.2-3.3,0-4.5l6.4-6.4      C61.2,10.7,62,10.7,62.5,11.2z" />
</svg>
