<svg version="1.1" x="0px" y="0px" viewBox="0 0 95 95">


    <polygon
      points="22.9,22.3 22.9,34.1 29.8,34.1 29.8,29.2 43.9,29.2 43.9,65.8 39.3,65.8 39.3,72.7 55.7,72.7 55.7,65.8     50.8,65.8 50.8,29.2 65.2,29.2 65.2,34.1 72.1,34.1 72.1,22.3   " />
    <path
      d="M73,82.8H23.5L8.1,25c-0.8-3.1-0.2-6.3,1.7-8.9s4.9-4,8.1-4h59.1c3.2,0,6.1,1.4,8,3.9c1.9,2.5,2.6,5.7,1.9,8.7L73,82.8z      M28.8,76h38.8l12.7-52.8c0.3-1,0-2.1-0.6-2.9c-0.6-0.8-1.6-1.3-2.7-1.3H18c-1.1,0-2,0.5-2.7,1.3c-0.6,0.8-0.8,1.9-0.6,2.9     L28.8,76z" />

</svg>
