<svg version="1.1" x="0px" y="0px" viewBox="0 0 95 95">
  <path
    d="M32.6,40.6L18.9,75.7c-0.4,0.9-0.1,1.9,0.5,2.6l1.7,1.7l24.3-24.3c-1.1-1.9-0.9-4.4,0.8-6c1.9-1.9,5.1-1.9,7,0     c1.9,1.9,1.9,5.1,0,7c-1.6,1.6-4.1,1.9-6,0.8L22.9,81.9l1.7,1.7c0.7,0.7,1.7,0.9,2.6,0.5l35.1-13.8c2.9-1.1,5.1-3.4,6-6.4     l6.4-19.1c0.5-1.5,0.1-3.2-1-4.3L62.5,29.3c-1.1-1.1-2.8-1.5-4.3-1L39,34.6C36.1,35.6,33.8,37.8,32.6,40.6z" />
  <path
    d="M66.5,12.4l24,24c0.6,0.6,0.6,1.5,0,2l-5.1,5.1c-1.4,1.4-3.6,1.4-4.9,0L59.4,22.5c-1.4-1.4-1.4-3.6,0-4.9l5.1-5.1     C65.1,11.9,66,11.9,66.5,12.4z" />
  <path
    d="M18.7,85.5c-0.3,0-6.7-0.1-10-5.4C5.5,75,6.4,67,11.5,56.3c2.7-5.7,1.6-10.5-0.3-13c-1.5-1.9-3.6-2.8-5.8-2.5l-0.4-2.4    c3.2-0.5,6.2,0.7,8.2,3.4c3,3.9,3.2,9.9,0.5,15.5c-4.6,9.7-5.6,17.1-2.9,21.4c2.6,4.1,7.9,4.2,7.9,4.2L18.7,85.5z" />
</svg>
