<svg version="1.1" x="0px" y="0px" viewBox="0 0 95 95">
    <circle cx="74.1" cy="18.6" r="7.3" />
    <path
      d="M49.2,16.8c-17.3,0-31.4,14-31.4,31.4c0,3.8,0.7,7.4,1.9,10.8c1.9-1,4.1-1.6,6.4-1.6c7.6,0,13.8,6.2,13.8,13.8    c0,2.3-0.6,4.5-1.6,6.4c3.4,1.2,7,1.9,10.8,1.9c17.3,0,31.4-14,31.4-31.4C80.6,30.8,66.5,16.8,49.2,16.8z M57.8,54.4    c-9.6,0-17.3-7.8-17.3-17.3c0-9.6,7.8-17.3,17.3-17.3c9.6,0,17.3,7.8,17.3,17.3C75.1,46.6,67.3,54.4,57.8,54.4z" />
    <circle cx="26.1" cy="71.2" r="12.5" />
</svg>
