<svg version="1.1" x="0px" y="0px" viewBox="0 0 95 95">
  <path
    d="M10.4,19.5v56.6h76V19.5H10.4z M80.6,32.2H68.8v-7h11.8V32.2z M51.2,32.2v-7H63v7H51.2z M63,37.9v7H51.2v-7H63z     M45.5,32.2H33.7v-7h11.8V32.2z M45.5,37.9v7H33.7v-7H45.5z M27.9,44.9H16.1v-7h11.8V44.9z M27.9,50.7v7H16.1v-7H27.9z M33.7,50.7    h11.8v7H33.7V50.7z M45.5,63.4v7H33.7v-7H45.5z M51.2,63.4H63v7H51.2V63.4z M51.2,57.6v-7H63v7H51.2z M68.8,50.7h11.8v7H68.8V50.7    z M68.8,44.9v-7h11.8v7H68.8z M27.9,25.2v7H16.1v-7H27.9z M16.1,63.4h11.8v7H16.1V63.4z M68.8,70.3v-7h11.8v7H68.8z" />
</svg>
