<svg version="1.1" x="0px" y="0px" viewBox="0 0 95 95">
  <path
    d="M37.8,87c-1.5,0-2.9-0.8-3.5-2.1c-0.1-0.3-0.2-0.6-0.2-0.9c0-7.2-3.5-12.1-9-16.5c-5.1-4-9.6-8.7-14.3-13.2      C7,50.8,6.5,46.6,9.4,43.1c2.8-3.5,7-3.8,11.3-0.8c2.8,1.9,5.6,3.8,9,6.1c-0.8-2.4-1.3-4.1-2-5.8c-2.1-4.9-4.3-9.8-6.4-14.7      c-1.8-4.2,0-8.6,4-10.4c3.9-1.7,8.2-0.1,10.1,4c1.4,2.9,2.7,5.9,4.6,8.7c0-4.2-0.1-8.4,0-12.5c0-1.6,0.1-3.2,0.6-4.7      c1.1-3.3,4.8-5.4,8-4.9c3.8,0.6,6.5,3.4,6.8,7.2c0.1,1.7,0.3,13.5,0.4,14.4c-0.1-2.8-0.3-13.5,6-14.8c5.6-1.2,10.3,2.6,9.9,8.5      c-0.3,3.7-0.7,7.5-0.8,11.5c2.3-2.9,4.3-6.3,8.5-6.4c2.5-0.1,4.3,0.8,5.7,2.2c2.4,2.4,3,6.2,1.6,9.4c-4.3,9.7-8.5,19.4-13,29      c-2,4.4-3.4,8.8-3.2,13.7c0,0.3,0,0.6-0.1,0.9c-0.5,2-2.3,3.3-4.4,3.3H37.8z M52,82.6c3.8,0,7.5-0.2,11.3,0.1      c2.5,0.1,3.7-0.6,3.4-3.2c-0.3-3.5,0.8-6.6,2.2-9.7c4.7-10.3,9.2-20.8,13.7-31.2c0.9-2.1,1.1-4-1.1-5.5      c-1.8-1.2-3.8-0.5-5.4,1.8c-2.1,2.9-4.1,5.9-6.3,8.6c-0.5,0.6-1.9,1.2-2.5,1c-0.6-0.2-1.2-1.6-1.2-2.4c0-2.2,0.3-4.3,0.4-6.5      c0.3-4.3,0.7-8.6,1-12.9c0.1-2.2-0.8-3.7-3-4.1c-2.3-0.3-3.7,0.9-4.2,3.2c-0.1,0.7-0.3,1.5-0.4,2.2c-0.9,5.6-2.5,11-2.8,16.7      c-0.1,3.3-4.2,3-4-0.3c0.4-7.7-1.1-15.4-1.6-23.1c-0.2-3.5-1.3-5.1-3.9-5.1c-2.5,0-3.6,1.6-3.6,5.3c0,7.1,0,14.1,0,21.2      c0,1.7,0.8,4-1.6,4.6c-2.5,0.6-2.7-1.9-3.3-3.4c-2.5-5.5-4.9-11-7.4-16.4c-0.9-2-2.5-3.1-4.8-2.2c-2.1,0.8-2.8,2.8-2,5.1      c0.2,0.6,0.6,1.2,0.8,1.8c3,7.7,5.7,15.5,8.8,23.1c1.9,4.6-1.8,4.1-3.7,2.9c-4.2-2.6-8.3-5.6-12.4-8.4c-2.6-1.7-4.7-1.8-6-0.1      c-1.4,1.8-1,3.8,1.3,5.9c5.2,4.8,10.2,9.8,15.5,14.4c4.6,4,8.8,7.9,8.3,14.7c-0.1,1.4,0.8,2.1,2.3,2C43.9,82.5,48,82.6,52,82.6z      " />
</svg>
