<svg version="1.1" x="0px" y="0px" viewBox="0 0 95 95">
  <path  d="M33.7,58.1l-1.5-0.9c0.1-0.2,9-15.6,8.8-33.3l2.3,0C43.4,42.2,34.1,57.5,33.7,58.1z" />
  <path
    d="M74.1,48.6c-0.8-5-4.7-8.8-9.6-10.2C59.8,37.1,53.6,37,51,43.5c-4.5,11.3-9.1,17.1-13.6,19.6c0,0,7.2,4.9,17.8,2.6    C66.7,63.4,75.5,57.4,74.1,48.6z" />
  <path d="M87.9,12.2l-21.8,21c5.3,2.5,9.7,6.6,12.6,11.8l0.9,1.7l8.3-11.6V12.2z" />
  <path
    d="M12.4,84.4l-1.6-1.6c8.4-8.6,21.6-23.7,21.6-27.5c-0.1-6.5-15.6-21.8-21.5-27.1l1.5-1.7c2.3,2,22.2,20.1,22.3,28.8     C34.7,61.2,14.7,82,12.4,84.4z" />
</svg>
