<svg version="1.1" x="0px" y="0px" viewBox="0 0 95 95">
  <path
    d="M82.2,37.3c-1.7-1.5-1.9-4.2-0.4-5.9l0.2-0.2l8.9-17.3H58.7L42.4,28.8l4,3.3L9.4,66.7L9.3,87h14.9l0-8.6l12.5,0l0-7.9    l10.6-0.1l0.1-11.7l8.7,0l0-10.7l9.7-0.3l2.7,2.2c1.9,1.7,4.3,2.6,6.8,2.6c0.2,0,0.4,0,0.7,0c2.8-0.2,5.3-1.4,7.1-3.5    c1.5-1.7,2.2-3.8,2.1-6C84.8,40.8,83.8,38.7,82.2,37.3z M51.8,44l0,10.6l-8.7,0l-0.1,11.7l-10.6,0.1l0,7.9l-12.4,0l0,8.6h-6.6    l0.1-14.3l35.6-33.2l11,8.5L51.8,44z M79.8,46.3c-1.1,1.2-2.6,2-4.3,2.1c-1.6,0.1-3.2-0.4-4.5-1.6L48.7,28.6l11.6-10.6h23.8    l-5.6,10.8c-2.8,3.4-2.4,8.5,0.9,11.5c0.8,0.7,1.3,1.8,1.4,2.9S80.5,45.4,79.8,46.3z" />
  <path
    d="M67.3,20.3c-3,0-5.4,2.4-5.4,5.4s2.4,5.4,5.4,5.4c3,0,5.4-2.4,5.4-5.4S70.3,20.3,67.3,20.3z M67.3,27    c-0.7,0-1.3-0.6-1.3-1.3s0.6-1.3,1.3-1.3c0.7,0,1.3,0.6,1.3,1.3S68,27,67.3,27z" />
</svg>
