<svg version="1.1" x="0px" y="0px" viewBox="0 0 95 95">
  <polygon points="92.5,65.6 40.8,13.8 40.8,87.4 62,64.4   " />
  <path
    d="M29.2,75.1c-4.9,0-8.8-4.5-8.8-10.1s4-10.1,8.8-10.1S38,59.4,38,65S34.1,75.1,29.2,75.1z M29.2,57.1     c-3.6,0-6.6,3.5-6.6,7.9s3,7.9,6.6,7.9s6.6-3.5,6.6-7.9S32.8,57.1,29.2,57.1z" />
  <path
    d="M16.7,65.8c-4.1,0-7.4-3.8-7.4-8.4s3.3-8.4,7.4-8.4c4.1,0,7.4,3.8,7.4,8.4S20.8,65.8,16.7,65.8z M16.7,51.1     c-2.9,0-5.2,2.8-5.2,6.2s2.3,6.2,5.2,6.2c2.9,0,5.2-2.8,5.2-6.2S19.5,51.1,16.7,51.1z" />
  <path
    d="M26.3,85.5l-0.4-2.3c1.1-0.2,4.2-1.1,4.9-3.1c0.6-1.7-0.9-3.9-2.2-5.5l1.7-1.5c2.5,2.9,3.4,5.5,2.6,7.8     C31.7,84.6,26.5,85.5,26.3,85.5z M26.1,84.4l-0.2-1.1c0,0,0,0,0,0L26.1,84.4z" />
  <path
    d="M11.3,52.8C11.2,52.6-2.1,32.3,15.5,16c0.8-0.8,9.8-10,31.4-8.5c12.6,0.9,19.4,6.6,22.9,11.2c4.6,6,6.4,14.1,4.8,21.6     l-2.3-0.5c1.4-6.8-0.2-14.2-4.4-19.7C63.3,14,56,10.5,46.7,9.8c-21-1.5-29.5,7.7-29.6,7.8l-0.1,0.1c-16.2,15-4,33.6-3.8,33.8     L11.3,52.8z" />
</svg>
