<svg version="1.1" x="0px" y="0px" viewBox="0 0 95 95">
  <polygon points="33.8,19 26.1,26.7 33.4,34 30.8,36.6 23.5,29.3 7.7,45.1 28.7,66.1 54.8,40   " />
  <rect x="19.1" y="18.9" transform="matrix(0.7071 -0.7071 0.7071 0.7071 -10.9781 21.9314)" width="3.7" height="10.7" />
  <path
    d="M54.7,39.9c0,0-3.6,7.1-4.2,8.2c-0.5,0.9-0.7,2-0.4,3.2c0.4,1.8,1.8,3.3,3.7,3.6c3,0.6,5.6-1.7,5.6-4.6    c0-0.9-0.2-1.7-0.7-2.4C58.1,46.9,54.7,39.9,54.7,39.9z" />
  <path d="M68.3,77.7H27.4V46.5h40.9V77.7z M29.2,75.9h37.2V48.4H29.2V75.9z" />
  <path d="M87.3,63.1H46.4V31.9h40.9V63.1z M48.3,61.2h37.2V33.7H48.3V61.2z" />
</svg>
