<svg version="1.1" x="0px" y="0px" viewBox="0 0 95 95">
  <rect x="0.9" y="55.8" transform="matrix(0.7071 -0.7071 0.7071 0.7071 -33.5306 42.7834)" width="67.9" height="12.1" />
  <path
    d="M67.9,51.8L67.9,51.8c5.4,0,9.7-4.3,9.7-9.7h0c0,5.3,4.3,9.7,9.7,9.7v0c-5.4,0-9.7,4.3-9.7,9.7h0    C77.5,56.1,73.2,51.8,67.9,51.8z" />
  <path
    d="M55.5,22.7L55.5,22.7c6.8,0,12.4-5.5,12.4-12.4h0c0,6.8,5.5,12.4,12.4,12.4v0c-6.8,0-12.4,5.5-12.4,12.4h0    C67.9,28.3,62.3,22.7,55.5,22.7z" />
  <path
    d="M14.7,27.6L14.7,27.6c9.3,0,16.8-7.5,16.8-16.8h0c0,9.3,7.5,16.8,16.8,16.8v0c-9.3,0-16.8,7.5-16.8,16.8h0    C31.5,35.1,24,27.6,14.7,27.6z" />
</svg>
