<svg version="1.1" x="0px" y="0px" viewBox="0 0 95 95">
  <path
    d="M25.9,41.4L11.3,78.7c-0.4,1-0.1,2.1,0.6,2.8l1.8,1.8l25.8-25.8c-1.2-2-0.9-4.6,0.8-6.4c2.1-2.1,5.4-2.1,7.4,0     c2.1,2.1,2.1,5.4,0,7.4c-1.7,1.7-4.4,2-6.4,0.8L15.6,85.2l1.8,1.8c0.7,0.7,1.8,1,2.8,0.6l37.3-14.6c3-1.2,5.4-3.7,6.4-6.7     l6.7-20.3c0.5-1.6,0.1-3.4-1.1-4.6l-12-12c-1.2-1.2-3-1.6-4.6-1.1L32.7,35C29.6,36,27.1,38.4,25.9,41.4z" />
  <path
    d="M61.7,11.3l25.8,25.8c0.5,0.5,0.5,1.3,0,1.8l-5.9,5.9c-1.2,1.2-3.3,1.2-4.5,0L54,21.8c-1.2-1.2-1.2-3.3,0-4.5l5.9-5.9     C60.4,10.8,61.2,10.8,61.7,11.3z" />
  <rect x="10.4" y="23.9" width="19.8" height="4.7" />
</svg>
