<svg version="1.1" x="0px" y="0px" viewBox="0 0 95 95">
  <path
    d="M25.1,39.8L10.1,78.2c-0.4,1-0.2,2.1,0.6,2.9l1.9,1.9l26.5-26.5c-1.2-2.1-0.9-4.8,0.8-6.6c2.1-2.1,5.5-2.1,7.6,0    c2.1,2.1,2.1,5.5,0,7.6c-1.8,1.8-4.5,2.1-6.6,0.8L14.5,84.9l1.9,1.9c0.8,0.8,1.9,1,2.9,0.6l38.4-15.1c3.1-1.2,5.5-3.8,6.6-6.9    l6.9-20.9c0.6-1.7,0.1-3.5-1.1-4.7L57.7,27.4c-1.2-1.2-3.1-1.7-4.7-1.1l-20.9,6.9C28.9,34.3,26.3,36.7,25.1,39.8z" />
  <path
    d="M62,8.9l26.6,26.6c0.5,0.5,0.5,1.3,0,1.8l-6.2,6.2c-1.2,1.2-3.3,1.2-4.5,0L53.9,19.6c-1.2-1.2-1.2-3.3,0-4.5l6.2-6.2    C60.6,8.3,61.5,8.3,62,8.9z" />
</svg>
