<svg version="1.1" x="0px" y="0px" viewBox="0 0 95 95">
  <path
    d="M46.2,4C22.3,4,2.8,23.5,2.8,47.4s19.5,43.5,43.5,43.5s43.5-19.5,43.5-43.5S70.2,4,46.2,4z M46.2,7    c8.3,0,16.1,2.5,22.5,6.9l-2.3,3.2C60.6,13.2,53.7,11,46.2,11S31.8,13.2,26,17.1l-2.3-3.2C30.2,9.6,37.9,7,46.2,7z M42.5,39.8    l-2.4-3.2c1.8-1,3.8-1.6,6-1.6c2.2,0,4.2,0.6,6,1.6l-2.4,3.2c-1.1-0.5-2.4-0.9-3.7-0.9C44.9,38.9,43.7,39.2,42.5,39.8z M43.8,46.6    l-3,1c0-0.1,0-0.1,0-0.2c0-1.3,0.4-2.4,1.2-3.3L43.8,46.6z M37.8,48.6L34,49.8c-0.1-0.8-0.2-1.6-0.2-2.4c0-3.6,1.5-6.8,4-9.1    l2.3,3.2c-1.5,1.5-2.4,3.6-2.4,5.9C37.7,47.8,37.7,48.2,37.8,48.6z M31.1,50.8L27.3,52c-0.4-1.5-0.6-3-0.6-4.5    c0-5.9,2.7-11.2,6.8-14.8l2.3,3.2c-3.2,2.8-5.2,7-5.2,11.6C30.7,48.6,30.9,49.7,31.1,50.8z M24.4,52.9l-3.8,1.2    c-0.6-2.1-0.9-4.4-0.9-6.7c0-8.2,3.8-15.6,9.7-20.5l2.3,3.2c-4.9,4.1-8.1,10.3-8.1,17.2C23.7,49.3,24,51.2,24.4,52.9z M17.8,55.1    L14,56.3c-0.8-2.8-1.2-5.8-1.2-8.9c0-10.6,4.9-20,12.6-26.1l2.3,3.2c-6.7,5.4-11,13.7-11,22.9C16.7,50.1,17.1,52.7,17.8,55.1z     M60.6,30.2L63,27c5.9,4.9,9.7,12.2,9.7,20.5c0,2.3-0.3,4.6-0.9,6.7L68,52.9c0.4-1.8,0.7-3.6,0.7-5.5    C68.7,40.5,65.6,34.3,60.6,30.2z M56.5,35.9l2.3-3.2c4.2,3.6,6.8,8.9,6.8,14.8c0,1.6-0.2,3.1-0.6,4.5l-3.8-1.2    c0.2-1.1,0.4-2.2,0.4-3.3C61.7,42.8,59.7,38.7,56.5,35.9z M52.4,41.6l2.3-3.2c2.4,2.3,4,5.5,4,9.1c0,0.8-0.1,1.6-0.2,2.4l-3.8-1.2    c0.1-0.4,0.1-0.8,0.1-1.1C54.7,45.2,53.8,43.1,52.4,41.6z M46.2,25c-4.4,0-8.5,1.3-11.9,3.5l-2.3-3.2c4.1-2.7,9-4.2,14.3-4.2    s10.2,1.5,14.3,4.2l-2.3,3.2C54.7,26.2,50.6,25,46.2,25z M62.3,22.7c-4.6-3-10.1-4.8-16.1-4.8s-11.4,1.8-16.1,4.8l-2.3-3.2    c5.3-3.5,11.6-5.5,18.4-5.5s13.1,2,18.4,5.5L62.3,22.7z M38.4,34.1l-2.3-3.2c3-1.8,6.4-2.9,10.2-2.9s7.2,1.1,10.2,2.9L54,34.1    c-2.3-1.4-5-2.1-7.8-2.1S40.7,32.7,38.4,34.1z M50.5,44.1c0.7,0.9,1.2,2.1,1.2,3.3c0,0.1,0,0.1,0,0.2l-3-1L50.5,44.1z M50.7,50.5    c-0.7,1-1.8,1.8-3,2.2v-3.1L50.7,50.5z M53.7,51.5l3.8,1.2c-1.8,3.8-5.4,6.6-9.8,7.1v-4C50.3,55.3,52.5,53.7,53.7,51.5z     M60.4,53.7l3.8,1.2c-2.7,6.6-9,11.4-16.5,11.9v-4C53.4,62.3,58.2,58.7,60.4,53.7z M67.1,55.8l3.8,1.2    c-3.7,9.4-12.6,16.2-23.1,16.8v-4C56.5,69.3,63.9,63.6,67.1,55.8z M73.7,58l3.8,1.2c-4.6,12.2-16.1,21-29.8,21.6v-4    C59.6,76.3,69.7,68.6,73.7,58z M74.7,55.1c0.7-2.4,1-5,1-7.7c0-9.2-4.3-17.5-11-22.9l2.3-3.2c7.7,6.1,12.6,15.6,12.6,26.1    c0,3.1-0.4,6-1.2,8.9L74.7,55.1z M5.8,47.4c0-12.9,6.1-24.4,15.5-31.8l2.3,3.2c-8.4,6.7-13.8,17-13.8,28.6c0,3.4,0.5,6.7,1.4,9.8    l-3.8,1.2C6.3,55,5.8,51.3,5.8,47.4z M44.7,87.8C28,87.2,13.8,76.4,8.3,61.4l3.8-1.2c5,13.4,17.7,23.1,32.7,23.7V87.8z M44.7,80.8    c-13.6-0.6-25.2-9.4-29.8-21.6l3.8-1.2c4.1,10.6,14.1,18.3,26,18.9V80.8z M44.7,73.8C34.2,73.2,25.3,66.4,21.6,57l3.8-1.2    c3.1,7.8,10.6,13.4,19.3,14V73.8z M44.7,66.8c-7.4-0.6-13.7-5.3-16.5-11.9l3.8-1.2c2.2,5,7,8.7,12.7,9.2V66.8z M44.7,59.8    c-4.3-0.5-8-3.3-9.8-7.1l3.8-1.2c1.2,2.2,3.4,3.9,6,4.3V59.8z M44.7,52.7c-1.2-0.4-2.3-1.1-3-2.2l3-1V52.7z M44.4,42.3    c0.6-0.2,1.2-0.3,1.9-0.3s1.3,0.1,1.9,0.3l-1.9,2.5L44.4,42.3z M47.7,87.8v-4c15-0.6,27.7-10.3,32.7-23.7l3.8,1.2    C78.7,76.4,64.5,87.2,47.7,87.8z M81.3,57.3c0.9-3.1,1.4-6.4,1.4-9.8c0-11.6-5.4-21.9-13.8-28.6l2.3-3.2    c9.4,7.4,15.5,18.9,15.5,31.8c0,3.8-0.5,7.5-1.5,11L81.3,57.3z" />
</svg>
