<svg version="1.1" x="0px" y="0px" viewBox="0 0 95 95">
  <polygon points="49.8,27.7 45.8,27.7 47.8,31.2   " />
  <polygon points="78.6,48.1 78.6,44.2 75.2,46.2   " />
  <polygon points="45.8,67.3 49.8,67.3 47.8,63.8   " />
  <polygon points="16.1,44.1 16.1,48.3 19.8,46.2   " />
  <polygon
    points="64.5,46.2 78.6,38 78.6,27.7 56,27.7 47.8,41.9 39.6,27.7 16.1,27.7 16.1,37.9 30.5,46.2 16.1,54.5 16.1,67.3     39.6,67.3 47.8,53.1 56,67.3 78.6,67.3 78.6,54.4   " />
  <polygon points="47.8,58.5 37.6,76.2 58,76.2   " />
  <polygon points="25.1,46.2 7.5,36 7.5,56.4   " />
  <polygon points="69.9,46.2 87.5,56.4 87.5,36   " />
  <polygon points="47.8,36.5 58,18.8 37.6,18.8   " />
</svg>
