<svg version="1.1" x="0px" y="0px" viewBox="0 0 95 95">
  <path
    d="M47,85.6c-21,0-38-17.1-38-38c0-21,17.1-38,38-38c21,0,38,17.1,38,38C85,68.5,67.9,85.6,47,85.6z M47,14    c-18.5,0-33.5,15-33.5,33.5s15,33.5,33.5,33.5s33.5-15,33.5-33.5S65.5,14,47,14z" />
  <path
    d="M47,62c-7.9,0-14.4-6.5-14.4-14.4c0-7.9,6.5-14.4,14.4-14.4s14.4,6.5,14.4,14.4C61.4,55.5,54.9,62,47,62z M47,34.8    c-7,0-12.7,5.7-12.7,12.7c0,7,5.7,12.7,12.7,12.7s12.7-5.7,12.7-12.7C59.7,40.5,54,34.8,47,34.8z" />
  <circle cx="49" cy="28.4" r="6.5" />
  <circle cx="31.5" cy="50.2" r="6.5" />
  <circle cx="44.6" cy="68.4" r="6.5" />
  <circle cx="69.2" cy="54.1" r="6.5" />
</svg>
