<svg version="1.1" x="0px" y="0px" viewBox="0 0 95 95">
  <polygon points="57.9,45.5 89,14.5 89,76.6   " />
  <path d="M5.6,77.8V13.3l32.2,32.2L5.6,77.8z M6.6,15.7v59.7l29.8-29.8L6.6,15.7z" />
  <path
    d="M49.2,89.5c-1.1,0-2-0.9-2-2l0-0.2c0-1.1,0.9-2,2-2.1c0,0,0,0,0,0c1.1,0,2,0.9,2,2l0,0.2C51.2,88.5,50.3,89.5,49.2,89.5     C49.2,89.5,49.2,89.5,49.2,89.5z M49.1,81.1c-1.1,0-2-0.9-2-2l0-0.2c0-1.1,0.9-2,2-2.1c0,0,0,0,0,0c1.1,0,2,0.9,2,2l0,0.2     C51.2,80.2,50.3,81.1,49.1,81.1C49.1,81.1,49.1,81.1,49.1,81.1z M49,72.8c-1.1,0-2-0.9-2-2l0-0.2c0-1.1,0.9-2,2-2.1c0,0,0,0,0,0     c1.1,0,2,0.9,2,2l0,0.2C51.1,71.9,50.2,72.8,49,72.8C49,72.8,49,72.8,49,72.8z M49,64.5c-1.1,0-2-0.9-2-2l0-0.2     c0-1.1,0.9-2,2-2.1c0,0,0,0,0,0c1.1,0,2,0.9,2,2l0,0.2C51,63.5,50.1,64.4,49,64.5C49,64.5,49,64.5,49,64.5z M48.9,56.1     c-1.1,0-2-0.9-2-2l0-0.2c0-1.1,0.9-2,2-2c0,0,0,0,0,0c1.1,0,2,0.9,2,2l0,0.2C50.9,55.2,50,56.1,48.9,56.1     C48.9,56.1,48.9,56.1,48.9,56.1z M48.8,47.8c-1.1,0-2-0.9-2-2l0-0.2c0-1.1,0.9-2,2-2.1c0,0,0,0,0,0c1.1,0,2,0.9,2,2l0,0.2     C50.9,46.8,50,47.8,48.8,47.8C48.8,47.8,48.8,47.8,48.8,47.8z M48.7,39.4c-1.1,0-2-0.9-2-2l0-0.2c0-1.1,0.9-2,2-2.1c0,0,0,0,0,0     c1.1,0,2,0.9,2,2l0,0.2C50.8,38.5,49.9,39.4,48.7,39.4C48.7,39.4,48.7,39.4,48.7,39.4z M48.7,31.1c-1.1,0-2-0.9-2-2l0-0.2     c0-1.1,0.9-2,2-2.1c0,0,0,0,0,0c1.1,0,2,0.9,2,2l0,0.2C50.7,30.2,49.8,31.1,48.7,31.1C48.7,31.1,48.7,31.1,48.7,31.1z M48.6,22.8     c-1.1,0-2-0.9-2-2l0-0.2c0-1.1,0.9-2,2-2.1c0,0,0,0,0,0c1.1,0,2,0.9,2,2l0,0.2C50.6,21.8,49.7,22.7,48.6,22.8     C48.6,22.8,48.6,22.8,48.6,22.8z M48.5,14.4c-1.1,0-2-0.9-2-2l0-0.2c0-1.1,0.9-2,2-2.1c0,0,0,0,0,0c1.1,0,2,0.9,2,2l0,0.2     C50.6,13.5,49.6,14.4,48.5,14.4C48.5,14.4,48.5,14.4,48.5,14.4z M48.4,6.1c-1.1,0-2-0.9-2-2l0-0.2c0-1.1,0.9-2,2-2.1c0,0,0,0,0,0     c1.1,0,2,0.9,2,2l0,0.2C50.5,5.1,49.6,6.1,48.4,6.1C48.4,6.1,48.4,6.1,48.4,6.1z" />
</svg>
