<svg version="1.1" x="0px" y="0px" viewBox="0 0 95 95">
  <path
    d="M77.5,28.1c-4.2-6.6-10.7-11.9-18.2-14.5c-7.6-2.6-15.9-2.7-23.7-0.3c-7.4,2.2-14.1,6.9-19,13l-6.1-3.6l3.4,12.8l12.8-3.4    l-6-3.5c4-5.4,9.6-9.7,16.1-12c6.9-2.5,14.7-2.9,21.8-0.8c7.2,2.1,13.6,6.7,18,12.9c4.4,6.2,6.8,13.8,7,21.5    C83.8,42.5,81.8,34.7,77.5,28.1z" />
  <path
    d="M46.6,83.3h-0.1c-0.5,0-0.8-0.4-0.8-0.9c0-0.5,0.4-0.8,0.8-0.8c0.1,0,0.1,0,0.2,0c0.2,0,0.4,0.1,0.6,0.2    c0.2,0.2,0.2,0.4,0.2,0.6C47.4,82.9,47,83.3,46.6,83.3z M53.4,82.7L53.4,82.7c-0.4,0-0.8-0.3-0.8-0.7c0-0.2,0-0.5,0.1-0.6    c0.1-0.2,0.3-0.3,0.6-0.3l0.1,0c0.4-0.1,0.9,0.2,1,0.7c0,0,0,0.1,0,0.1c0,0.4-0.3,0.8-0.7,0.9c0,0,0,0-0.1,0c0,0-0.1,0-0.1,0    C53.5,82.7,53.4,82.7,53.4,82.7z M39.6,82.5c-0.1,0-0.1,0-0.2,0c-0.1,0-0.1,0-0.1,0c-0.2,0-0.4-0.2-0.5-0.4    c-0.1-0.2-0.2-0.4-0.1-0.6c0.1-0.5,0.6-0.8,1-0.7c0,0,0.1,0,0.1,0h0l0,0c0.4,0.1,0.7,0.4,0.7,0.8c0,0.1,0,0.1,0,0.2    C40.4,82.2,40,82.5,39.6,82.5z M60.1,80.9c-0.3,0-0.7-0.2-0.8-0.5c-0.1-0.2-0.1-0.5,0-0.7c0.1-0.2,0.3-0.4,0.5-0.5    c0,0,0.1,0,0.1,0h0c0.4-0.2,0.9,0.1,1.1,0.5c0,0.1,0.1,0.2,0.1,0.3c0,0.3-0.2,0.7-0.6,0.8c0,0,0,0-0.1,0c0,0,0,0-0.1,0    C60.3,80.9,60.2,80.9,60.1,80.9z M33,80.5c-0.1,0-0.2,0-0.3-0.1c0,0-0.1,0-0.1,0c-0.5-0.2-0.7-0.7-0.5-1.1    c0.2-0.4,0.7-0.7,1.1-0.5c0,0,0.1,0,0.1,0c0.3,0.1,0.6,0.5,0.6,0.8c0,0.1,0,0.2-0.1,0.3C33.6,80.3,33.3,80.5,33,80.5z M66.4,77.9    c-0.3,0-0.6-0.1-0.7-0.4c-0.1-0.2-0.1-0.4-0.1-0.6c0-0.2,0.2-0.4,0.4-0.5c0,0,0,0,0,0c0,0,0,0,0,0c0.5-0.3,0.9-0.1,1.2,0.3    c0.1,0.1,0.1,0.3,0.1,0.4c0,0.3-0.2,0.6-0.4,0.7c0,0,0,0,0,0l-0.1,0C66.7,77.8,66.5,77.9,66.4,77.9z M26.8,77.2    c-0.2,0-0.3,0-0.5-0.1l0,0c0,0,0,0,0,0c0,0,0,0-0.1,0c-0.4-0.3-0.5-0.8-0.2-1.2c0.2-0.4,0.8-0.5,1.2-0.2c0,0,0,0,0,0l0.1,0    c0.2,0.2,0.4,0.4,0.4,0.7c0,0.2,0,0.3-0.1,0.5C27.4,77.1,27.1,77.2,26.8,77.2z M72,73.7c-0.2,0-0.5-0.1-0.6-0.3    c-0.2-0.2-0.2-0.4-0.2-0.6c0-0.2,0.1-0.4,0.3-0.6l0.1,0c0,0,0,0,0,0c0.3-0.3,0.9-0.3,1.2,0.1c0.1,0.2,0.2,0.4,0.2,0.6    c0,0.2-0.1,0.5-0.3,0.6c0,0,0,0,0,0c0,0,0,0-0.1,0C72.4,73.7,72.2,73.7,72,73.7z M21.4,72.9c-0.2,0-0.4-0.1-0.6-0.2l0,0    c0,0,0,0-0.1-0.1l0,0c-0.3-0.3-0.4-0.9,0-1.2c0.3-0.3,0.9-0.3,1.2,0c0,0,0,0,0,0c0,0,0,0,0.1,0c0.2,0.2,0.3,0.4,0.2,0.6    c0,0.2-0.1,0.4-0.2,0.6C21.8,72.8,21.6,72.9,21.4,72.9z M76.7,68.6c-0.2,0-0.3-0.1-0.5-0.2c-0.2-0.1-0.3-0.3-0.3-0.6    c0-0.2,0-0.5,0.2-0.6c0,0,0,0,0.1-0.1c0,0,0,0,0,0c0.3-0.4,0.8-0.4,1.2-0.2c0.2,0.2,0.3,0.4,0.3,0.7c0,0.2-0.1,0.3-0.2,0.5l0,0    c0,0,0,0-0.1,0.1C77.2,68.5,76.9,68.6,76.7,68.6z M16.8,67.7c-0.3,0-0.5-0.1-0.7-0.3c0,0,0,0,0-0.1l0-0.1    c-0.3-0.4-0.2-0.9,0.2-1.2c0.4-0.3,0.9-0.2,1.2,0.2c0,0,0,0,0,0.1c0,0,0,0,0,0.1c0.1,0.1,0.1,0.3,0.1,0.5c0,0.3-0.1,0.6-0.3,0.7    C17.1,67.6,17,67.7,16.8,67.7z M80.3,62.7c-0.1,0-0.3,0-0.4-0.1c-0.4-0.2-0.6-0.7-0.4-1.2l0.1-0.1c0.2-0.4,0.7-0.6,1.2-0.4    c0.3,0.1,0.5,0.5,0.5,0.8c0,0.1,0,0.2-0.1,0.4l-0.1,0.1C81,62.5,80.7,62.7,80.3,62.7z M13.3,61.6c-0.3,0-0.6-0.2-0.8-0.5    c0,0,0,0,0-0.1c0,0,0,0,0-0.1c-0.1-0.2-0.1-0.5,0-0.7c0.1-0.2,0.2-0.4,0.5-0.5c0.4-0.2,0.9,0,1.1,0.4c0,0,0,0.1,0,0.1l0,0    c0.1,0.1,0.1,0.2,0.1,0.4c0,0.3-0.2,0.6-0.5,0.8C13.5,61.6,13.4,61.6,13.3,61.6z M82.9,56.2c-0.1,0-0.1,0-0.2,0    c-0.2-0.1-0.4-0.2-0.5-0.4C82,55.6,82,55.3,82,55.1l0,0c0,0,0-0.1,0-0.1c0.1-0.4,0.6-0.7,1.1-0.6c0.5,0.1,0.7,0.6,0.6,1.1l0,0.1    C83.6,56,83.2,56.2,82.9,56.2z" />
</svg>
