<svg version="1.1" x="0px" y="0px" viewBox="0 0 95 95">
  <polygon points="79.8,21.6 68.2,21.6 79.8,33.3   " />
  <path
    d="M91.5,10H25.7v35H4.1v41.9h47.8V68.2h39.6V10z M47.2,82.2H8.8V49.6h16.9v18.6h21.6V82.2z M47.2,63.6H30.3v-14h16.9V63.6z     M86.8,63.6H51.9V44.9H30.3V14.6h56.5V63.6z" />
  <path
    d="M70.5,28.6l-0.1,0.1c-0.7,0.7-0.6,1.8,0.1,2.6c0.3,0.3,0.8,0.5,1.3,0.5c0.5,0,1-0.2,1.4-0.6c0.7-0.7,0.7-1.9,0-2.6    C72.4,27.9,71.2,27.9,70.5,28.6z" />
  <path
    d="M66.3,37.2c0.5,0,1-0.2,1.4-0.6c0.7-0.7,0.7-1.9,0-2.6c-0.7-0.7-1.9-0.7-2.6,0L65,34.1c-0.7,0.7-0.6,1.8,0.1,2.6    C65.4,37,65.9,37.2,66.3,37.2z" />
  <path
    d="M61,42.5c0.5,0,1-0.2,1.4-0.6c0.7-0.7,0.7-1.9,0-2.6c-0.7-0.7-1.9-0.7-2.6,0l-0.1,0.1c-0.7,0.7-0.6,1.8,0.1,2.6    C60,42.4,60.5,42.5,61,42.5z" />
</svg>
