<svg version="1.1" x="0px" y="0px" viewBox="0 0 95 95">
  <path
    d="M72.7,55.1c-3.4,0-6.6,1.4-8.9,3.6l-15.1-10l16.7-11c2.1,1.4,4.5,2.3,7.2,2.3c7,0,12.7-5.7,12.7-12.7s-5.7-12.7-12.7-12.7    S60,20.3,60,27.2c0,1.1,0.2,2.2,0.4,3.2L40.5,43.3L21.7,30.9c-4.2-2.4-9.6-1-12.1,3.3l22.5,14.6L9.6,63.3v0    c2.4,4.2,7.8,5.7,12.1,3.3l18.8-12.4L60,66.8c0,0.3,0,0.7,0,1c0,7,5.7,12.7,12.7,12.7s12.7-5.7,12.7-12.7S79.7,55.1,72.7,55.1z     M72.7,18.1c5,0,9.1,4.1,9.1,9.1s-4.1,9.1-9.1,9.1s-9.1-4.1-9.1-9.1S67.6,18.1,72.7,18.1z M72.7,76.9c-5,0-9.1-4.1-9.1-9.1    c0-5,4.1-9.1,9.1-9.1s9.1,4.1,9.1,9.1C81.8,72.8,77.7,76.9,72.7,76.9z" />
</svg>
