<svg version="1.1" x="0px" y="0px" viewBox="0 0 95 95">
  <circle  cx="48" cy="47.2" r="27.2" />
  <circle  cx="27" cy="46.7" r="18.5" />
  <polygon points="92,66.8 60.9,35.8 60.9,80 73.7,66.1   " />
  <path
    d="M16,48.9c-0.9,0-1.6-0.7-1.6-1.6c0-0.9,0.7-1.6,1.6-1.6l0.2,0c0,0,0,0,0,0c0.9,0,1.6,0.7,1.6,1.6c0,0.9-0.7,1.6-1.6,1.6     L16,48.9C16,48.9,16,48.9,16,48.9z M26.3,48.7c-0.9,0-1.6-0.7-1.6-1.6c0-0.9,0.7-1.6,1.6-1.7l0.2,0c0.9-0.1,1.6,0.7,1.7,1.6     c0,0.9-0.7,1.6-1.6,1.7L26.3,48.7C26.4,48.7,26.4,48.7,26.3,48.7z M36.7,48.5c-0.9,0-1.6-0.7-1.6-1.6c0-0.9,0.7-1.6,1.6-1.7     l0.2,0c0.9-0.1,1.6,0.7,1.7,1.6c0,0.9-0.7,1.6-1.6,1.7L36.7,48.5C36.7,48.5,36.7,48.5,36.7,48.5z" />
  <circle cx="53.1" cy="47" r="1.8" />
</svg>
