<svg version="1.1" x="0px" y="0px" viewBox="0 0 95 95">
  <path d="M59.1,53.5l10.6-10.6c-3.2-3.9-8.6-11.3-10-19.6l-4.5,4.5l-4.8,4.8C49.8,40.7,55.6,49.2,59.1,53.5z" />
  <path d="M55.2,57.4c-3.2-3.9-8.6-11.4-10-19.6l-9.4,9.4c-0.6,8.1,5.2,16.6,8.7,20.9L55.2,57.4z" />
  <path
    d="M78.5,27.9l-8.6-8.6c-1.4-1.3-3.4-1.6-5-0.8c-0.4,8,5.4,16.3,8.8,20.5l4.8-4.8C80.2,32.4,80.2,29.6,78.5,27.9z" />
  <path
    d="M30.6,52.4L22,61l-2.5,17.4l17.4-2.5l3.8-3.8C37.4,68.1,32,60.6,30.6,52.4z M23.4,74.5l1.5-10.5l9,9L23.4,74.5z" />
</svg>
