<svg version="1.1" x="0px" y="0px" viewBox="0 0 95 95">
  <path
    d="M53.1,88.3c-12.7,0-25.5-4.8-35.1-14.5C2.2,58,2.2,32.4,18,16.6C24.2,10.4,32.5,7,41.3,7c8.8,0,17.1,3.4,23.3,9.7     c10.5,10.5,10.5,27.7,0,38.2c-8.7,8.7-22.8,8.7-31.5,0c-3.5-3.5-5.4-8.1-5.4-13.1c0-4.9,1.9-9.6,5.4-13.1     c2.9-2.9,6.8-4.5,10.9-4.5c4.1,0,8,1.6,10.9,4.5c5.1,5.1,5.1,13.3,0,18.3c-4.3,4.3-11.3,4.3-15.6,0c-1.8-1.8-2.8-4.2-2.8-6.7     s1-4.9,2.8-6.7l4.6,4.6c-0.6,0.6-0.9,1.3-0.9,2.1s0.3,1.6,0.9,2.1c0.9,0.9,2,1.3,3.2,1.3c1.2,0,2.4-0.5,3.2-1.3     c2.5-2.5,2.5-6.7,0-9.2c-3.5-3.5-9.2-3.5-12.7,0c-2.3,2.3-3.5,5.3-3.5,8.5c0,3.2,1.2,6.2,3.5,8.5c6.2,6.2,16.2,6.2,22.4,0     c8-8,8-21.1,0-29.1c-10.3-10.3-27.2-10.3-37.5,0c-13.2,13.2-13.2,34.8,0,48c16.9,16.9,44.3,16.9,61.2,0l4.6,4.6     C78.6,83.5,65.9,88.3,53.1,88.3z" />
</svg>
