<svg version="1.1" x="0px" y="0px" viewBox="0 0 95 95">
  <path
    d="M26.6,54.6c-12,0-21.8-9.8-21.8-21.8s9.8-21.8,21.8-21.8s21.8,9.8,21.8,21.8S38.6,54.6,26.6,54.6z M26.6,16.2    c-9.2,0-16.7,7.5-16.7,16.7s7.5,16.7,16.7,16.7S43.3,42,43.3,32.8S35.8,16.2,26.6,16.2z" />
  <path
    d="M26.6,43.1c-5.7,0-10.3-4.6-10.3-10.3s4.6-10.3,10.3-10.3s10.3,4.6,10.3,10.3S32.3,43.1,26.6,43.1z M26.6,27.6    c-2.9,0-5.2,2.4-5.2,5.2s2.3,5.2,5.2,5.2s5.2-2.3,5.2-5.2S29.5,27.6,26.6,27.6z" />
  <path
    d="M68.4,64.3c-12,0-21.8-9.8-21.8-21.8s9.8-21.8,21.8-21.8s21.8,9.8,21.8,21.8S80.4,64.3,68.4,64.3z M68.4,25.9    c-9.2,0-16.7,7.5-16.7,16.7c0,9.2,7.5,16.7,16.7,16.7S85,51.8,85,42.6C85,33.4,77.6,25.9,68.4,25.9z" />
  <path
    d="M68.4,52.9c-5.7,0-10.3-4.6-10.3-10.3s4.6-10.3,10.3-10.3s10.3,4.6,10.3,10.3S74.1,52.9,68.4,52.9z M68.4,37.3    c-2.9,0-5.2,2.3-5.2,5.2c0,2.9,2.4,5.2,5.2,5.2s5.2-2.4,5.2-5.2C73.6,39.7,71.3,37.3,68.4,37.3z" />
  <path
    d="M44,88c-12,0-21.7-9.5-21.7-21.1S32.1,45.8,44,45.8s21.7,9.5,21.7,21.1S56,88,44,88z M44,50.8c-9.2,0-16.7,7.2-16.7,16.1    C27.3,75.8,34.8,83,44,83s16.7-7.2,16.7-16.1C60.8,58,53.3,50.8,44,50.8z" />
  <path
    d="M44,76.9c-5.7,0-10.3-4.5-10.3-10c0-5.5,4.6-10,10.3-10c5.7,0,10.3,4.5,10.3,10C54.3,72.4,49.7,76.9,44,76.9z M44,61.8    c-2.9,0-5.3,2.3-5.3,5s2.4,5,5.3,5s5.3-2.3,5.3-5S47,61.8,44,61.8z" />
</svg>
