<svg version="1.1" x="0px" y="0px" viewBox="0 0 95 95">
  <path
    d="M56.3,54.5c-7.7,0-14-6.1-14-13.7s6.3-13.7,14-13.7c7.7,0,14,6.1,14,13.7S64,54.5,56.3,54.5z M56.3,34    c-4,0-7.2,3.1-7.2,6.9s3.2,6.9,7.2,6.9s7.2-3.1,7.2-6.9S60.2,34,56.3,34z" />
  <path d="M53.7,84.3H25.3V55.9h28.4V84.3z M31.5,78.2h16.1V62.1H31.5V78.2z" />
  <path d="M41,71.7H12.6V43.2H41V71.7z M18.8,65.5h16.1V49.4H18.8V65.5z" />
  <path
    d="M41,55.9h12.7v6.7c0.8,0.1,1.7,0.1,2.5,0.1c12.5,0,22.7-9.8,22.7-21.9S68.8,18.9,56.3,18.9     c-12.5,0-22.7,9.8-22.7,21.9c0,0.8,0.1,1.6,0.1,2.4H41V55.9z" />
  <rect x="31.5" y="62.1"  width="3.4" height="3.4" />
  <path  d="M28.1,49.4h-9.3v16.1h6.5v-9.6h5.9C29.9,53.9,28.9,51.7,28.1,49.4z" />
  <path  d="M41,71.7h-9.6v6.5h16.1v-9.9c-2.3-0.7-4.5-1.7-6.5-2.9V71.7z" />
  <path
    d="M56.3,12.1C40,12.1,26.8,25,26.8,40.8c0,0.8,0,1.6,0.1,2.4h6.8c-0.1-0.8-0.1-1.6-0.1-2.4c0-12.1,10.2-21.9,22.7-21.9     c12.5,0,22.7,9.8,22.7,21.9S68.8,62.7,56.3,62.7c-0.9,0-1.7-0.1-2.5-0.1v6.8c0.8,0.1,1.7,0.1,2.5,0.1c16.3,0,29.5-12.9,29.5-28.7     S72.5,12.1,56.3,12.1z" />
  <path
    d="M53.7,55.9H41V43.2h-7.3h-6.8H12.6v28.4h12.7v12.7h28.4V69.4v-6.8V55.9z M34.9,62.1v3.4h-3.4v-3.4H34.9z M25.3,65.5h-6.5     V49.4h9.3h6.8v6.5h-3.7h-5.9V65.5z M47.6,78.2H31.5v-6.5H41v-6.3v-3.3h6.5v6.2V78.2z" />
</svg>
