<svg version="1.1" x="0px" y="0px" viewBox="0 0 95 95">
  <path
    d="M33.1,79.7c-16.5,0-29.9-13.4-29.9-29.9C3.2,33.4,16.6,20,33.1,20c16.5,0,29.9,13.4,29.9,29.9    C62.9,66.3,49.5,79.7,33.1,79.7z M33.1,25.7c-13.3,0-24.2,10.8-24.2,24.2C8.9,63.2,19.7,74,33.1,74c13.3,0,24.2-10.8,24.2-24.2    C57.2,36.5,46.4,25.7,33.1,25.7z" />
  <path
    d="M67.3,79.7c-8.7,0-15.7-7.1-15.7-15.7s7.1-15.7,15.7-15.7S83,55.3,83,64S76,79.7,67.3,79.7z M67.3,51.9    c-6.7,0-12.1,5.4-12.1,12.1S60.6,76,67.3,76c6.7,0,12.1-5.4,12.1-12.1S73.9,51.9,67.3,51.9z" />
  <path
    d="M56.6,75.4c-3.4,2.6-7.7,4.2-12.4,4.2c-11.3,0-20.5-9.2-20.5-20.5c0-11.3,9.2-20.5,20.5-20.5c7.6,0,14.3,4.2,17.8,10.4    c1.6-0.6,3.2-0.9,5-0.9C62.8,39.8,54.1,34,44.2,34c-13.9,0-25.3,11.3-25.3,25.3c0,13.9,11.3,25.3,25.3,25.3    c6.4,0,12.2-2.4,16.6-6.2C59.2,77.5,57.8,76.6,56.6,75.4z" />
  <path
    d="M67.3,71.4c-4.1,0-7.5-3.3-7.5-7.5c0-4.1,3.3-7.5,7.5-7.5c4.1,0,7.5,3.3,7.5,7.5C74.8,68.1,71.4,71.4,67.3,71.4z     M67.3,60.2c-2.1,0-3.8,1.7-3.8,3.8c0,2.1,1.7,3.8,3.8,3.8c2.1,0,3.8-1.7,3.8-3.8C71.1,61.9,69.4,60.2,67.3,60.2z" />
  <path
    d="M91.2,38.8l-23-23h5.1c1.2,0,2.1-1,2.1-2.1s-1-2.1-2.1-2.1H60.9V24c0,1.2,1,2.1,2.1,2.1c1.2,0,2.1-1,2.1-2.1v-5.1l23,23    c0.4,0.4,1,0.6,1.5,0.6s1.1-0.2,1.5-0.6C92,41,92,39.7,91.2,38.8z" />
</svg>
