<svg version="1.1" x="0px" y="0px" viewBox="0 0 95 95">
  <path d="M73.2,33.2V15.2H58.8v17.9H43.6v53h45.3v-53H73.2z M86.7,83.9H45.8V35.4h40.8V83.9z" />
  <path
    d="M65.7,72.6c7.2,0,13-5.8,13-13c0-7.2-5.8-13-13-13c-7.2,0-13,5.8-13,13C52.7,66.8,58.5,72.6,65.7,72.6z M65.7,48.9    c5.9,0,10.8,4.8,10.8,10.8s-4.8,10.8-10.8,10.8s-10.8-4.8-10.8-10.8S59.8,48.9,65.7,48.9z" />
  <rect x="6.4" y="18.5" width="9.6" height="9.6" />
  <rect x="6.4" y="32.3" width="9.6" height="9.6" />
  <rect x="19.9" y="18.5" width="9.6" height="9.6" />
  <rect x="19.9" y="32.3" width="9.6" height="9.6" />
  <rect x="6.2" y="46" width="9.6" height="9.6" />
  <rect x="33.7" y="18.5" width="9.6" height="9.6" />
</svg>
