<svg version="1.1" x="0px" y="0px" viewBox="0 0 95 95">
  <path
    d="M53.5,80c-12.6,0-22.9-10.3-22.9-22.9s10.3-22.9,22.9-22.9s22.9,10.3,22.9,22.9S66.1,80,53.5,80z M53.5,39.6    c-9.7,0-17.5,7.9-17.5,17.5s7.9,17.5,17.5,17.5s17.5-7.9,17.5-17.5S63.2,39.6,53.5,39.6z" />
  <path
    d="M53.5,68c-6,0-10.8-4.9-10.8-10.8c0-6,4.9-10.8,10.8-10.8s10.8,4.9,10.8,10.8C64.4,63.1,59.5,68,53.5,68z M53.5,51.6    c-3,0-5.5,2.5-5.5,5.5c0,3,2.5,5.5,5.5,5.5s5.5-2.5,5.5-5.5C59,54.1,56.6,51.6,53.5,51.6z" />
  <path
    d="M18.5,16.4h5.7c1.3,0,2.4-1.1,2.4-2.4s-1.1-2.4-2.4-2.4H10.4v13.8c0,1.3,1.1,2.4,2.4,2.4s2.4-1.1,2.4-2.4v-5.7l25.5,25.5    c0.5,0.5,1.1,0.7,1.7,0.7c0.6,0,1.2-0.2,1.7-0.7c0.9-0.9,0.9-2.4,0-3.4L18.5,16.4z" />
  <path
    d="M88.2,46L62.7,20.5h5.7c1.3,0,2.4-1.1,2.4-2.4s-1.1-2.4-2.4-2.4H54.6v13.8c0,1.3,1.1,2.4,2.4,2.4c1.3,0,2.4-1.1,2.4-2.4    v-5.7l25.5,25.5c0.5,0.5,1.1,0.7,1.7,0.7c0.6,0,1.2-0.2,1.7-0.7C89.1,48.4,89.1,46.9,88.2,46z" />
  <path
    d="M16.2,57.9h5.7c1.3,0,2.4-1.1,2.4-2.4c0-1.3-1.1-2.4-2.4-2.4H8.1v13.8c0,1.3,1.1,2.4,2.4,2.4s2.4-1.1,2.4-2.4v-5.7    l25.5,25.5c0.5,0.5,1.1,0.7,1.7,0.7s1.2-0.2,1.7-0.7c0.9-0.9,0.9-2.4,0-3.4L16.2,57.9z" />
</svg>
