<?xml version="1.0" encoding="UTF-8"?>
<svg width="1200pt" height="1200pt" version="1.1" viewBox="0 0 1200 1200" xmlns="http://www.w3.org/2000/svg">
 <g>
  <path d="m236.21 804.63c-112.42 0-203.37-90.949-203.37-203.37 0-112.42 90.949-203.37 203.37-203.37 112.42 0 203.37 90.949 203.37 203.37s-90.945 203.37-203.37 203.37zm0-360c-85.895 0-156.63 69.473-156.63 156.63 0 87.156 70.738 156.63 156.63 156.63 85.895 0 156.63-69.473 156.63-156.63 0-87.156-69.477-156.63-156.63-156.63z"/>
  <path d="m236.21 698.53c-53.051 0-97.262-42.949-97.262-97.262 0-54.316 42.949-97.262 97.262-97.262 53.051 0 97.262 42.949 97.262 97.262s-42.945 97.262-97.262 97.262zm0-146.53c-26.527 0-49.262 21.473-49.262 49.262 0 26.527 21.473 49.262 49.262 49.262 26.527 0 49.262-21.473 49.262-49.262 0-26.523-21.473-49.262-49.262-49.262z"/>
  <path d="m483.79 1021.9c-112.42 0-203.37-90.949-203.37-203.37 0-112.42 90.949-203.37 203.37-203.37 112.42 0 203.37 90.949 203.37 203.37 0 112.42-90.945 203.37-203.37 203.37zm0-360c-85.895 0-155.37 70.738-155.37 156.63 0 85.895 69.473 156.63 156.63 156.63 87.156 0 156.63-69.473 156.63-156.63-1.2656-85.895-72.004-156.63-157.9-156.63z"/>
  <path d="m483.79 914.53c-53.051 0-97.262-42.949-97.262-97.262 0-53.051 42.949-97.262 97.262-97.262 54.316 0 97.262 42.949 97.262 97.262s-42.945 97.262-97.262 97.262zm0-145.27c-26.527 0-49.262 21.473-49.262 49.262 0 26.527 21.473 49.262 49.262 49.262 26.527 0 49.262-21.473 49.262-49.262 0-27.785-21.473-49.262-49.262-49.262z"/>
  <path d="m963.79 912c-112.42 0-203.37-90.949-203.37-203.37 0-112.42 90.949-203.37 203.37-203.37 112.42 0 203.37 90.949 203.37 203.37 0 112.42-90.945 203.37-203.37 203.37zm0-360c-85.895 0-156.63 69.473-156.63 156.63 0 87.156 69.473 156.63 156.63 156.63 85.895 0 156.63-69.473 156.63-156.63 0-87.16-70.738-156.63-156.63-156.63z"/>
  <path d="m963.79 804.63c-53.051 0-97.262-42.949-97.262-97.262 0-54.316 42.949-97.262 97.262-97.262 53.051 0 97.262 42.949 97.262 97.262s-44.207 97.262-97.262 97.262zm0-145.27c-26.527 0-49.262 21.473-49.262 49.262 0 27.789 21.473 49.262 49.262 49.262 26.527 0 49.262-21.473 49.262-49.262 0-27.785-22.734-49.262-49.262-49.262z"/>
  <path d="m1092.6 438.32-204.63-204.63h65.684c15.156 0 27.789-12.633 27.789-27.789s-12.633-27.789-27.789-27.789h-160.42v160.42c0 15.156 12.633 27.789 27.789 27.789s27.789-12.633 27.789-27.789v-65.684l204.63 204.63c5.0508 5.0508 12.633 7.5781 18.949 7.5781 7.5781 0 13.895-2.5273 18.949-7.5781 12.629-11.371 12.629-29.055 1.2617-39.16z"/>
  <path d="m493.89 205.89c0 15.156 12.633 27.789 27.789 27.789h65.684l-204.63 204.63c-11.367 11.367-11.367 27.789 0 39.156 5.0508 5.0508 12.633 7.5781 18.949 7.5781s13.895-2.5273 18.949-7.5781l204.63-204.63v65.684c0 15.156 12.633 27.789 27.789 27.789s27.789-12.633 27.789-27.789l-0.003906-160.42h-159.16c-15.156 0-27.789 12.633-27.789 27.789z"/>
 </g>
</svg>
