<svg version="1.1" x="0px" y="0px" viewBox="0 0 95 95">
  <path
    d="M47.7,69.8c-11.3,0-20.5-9.2-20.5-20.5c0-11.3,9.2-20.5,20.5-20.5c11.3,0,20.5,9.2,20.5,20.5     C68.2,60.6,59,69.8,47.7,69.8z M47.7,33.6c-8.7,0-15.7,7-15.7,15.7S39.1,65,47.7,65s15.7-7,15.7-15.7S56.4,33.6,47.7,33.6z" />
  <path
    d="M47.7,59.1c-5.4,0-9.7-4.4-9.7-9.7c0-5.4,4.4-9.7,9.7-9.7c5.4,0,9.7,4.4,9.7,9.7C57.5,54.7,53.1,59.1,47.7,59.1z      M47.7,44.4c-2.7,0-4.9,2.2-4.9,4.9s2.2,4.9,4.9,4.9s4.9-2.2,4.9-4.9S50.5,44.4,47.7,44.4z" />
  <path
    d="M81.7,43.5c-2.8-16.3-17-28.7-34-28.7c-1.3,0-2.4,1.1-2.4,2.4s1.1,2.4,2.4,2.4c14.4,0,26.5,10.4,29.2,24l-7.1,0.2     l9.8,9.8l8.5-10.3L81.7,43.5z" />
  <path
    d="M47.3,75.4c-14.4,0-26.5-10.4-29.2-24l7.1-0.2l-9.8-9.8L6.9,51.7l6.3-0.2c2.8,16.3,17,28.7,34,28.7     c1.3,0,2.4-1.1,2.4-2.4S48.6,75.4,47.3,75.4z" />
</svg>
