<svg version="1.1" x="0px" y="0px" viewBox="0 0 95 95">
  <path
    d="M48.5,72c-4.6,0-8.4-3.8-8.4-8.4s3.8-8.4,8.4-8.4s8.4,3.8,8.4,8.4S53.1,72,48.5,72z M48.5,59.3c-2.3,0-4.3,1.9-4.3,4.3     s1.9,4.3,4.3,4.3s4.3-1.9,4.3-4.3S50.9,59.3,48.5,59.3z" />
  <path
    d="M65.9,51.4c-4.6,0-8.4-3.8-8.4-8.4c0-4.6,3.8-8.4,8.4-8.4s8.4,3.8,8.4,8.4C74.3,47.7,70.5,51.4,65.9,51.4z M65.9,38.8     c-2.3,0-4.3,1.9-4.3,4.3c0,2.3,1.9,4.3,4.3,4.3s4.3-1.9,4.3-4.3C70.1,40.7,68.2,38.8,65.9,38.8z" />
  <polygon points="33.1,20.5 26.8,26.7 32.8,32.7 30.7,34.8 24.7,28.9 11.9,41.7 28.9,58.8 50.2,37.6   " />
  <rect x="21.2" y="20.4" transform="matrix(0.7072 -0.707 0.707 0.7072 -10.8426 23.2979)" width="3" height="8.7" />
  <path
    d="M83.6,43c0-9.8-7.9-17.7-17.7-17.7c-9.1,0-16.6,6.9-17.6,15.7c0.9-1.7,1.8-3.6,1.8-3.6s1.3,2.6,2.3,4.5    c0.5-7,6.4-12.6,13.5-12.6c7.5,0,13.6,6.1,13.6,13.6c0,7.5-6.1,13.6-13.6,13.6c-0.4,0-0.8,0-1.2-0.1c-2-4.6-6-8.2-10.9-9.8    c-0.4,2-2.3,3.4-4.5,2.9c-1.5-0.3-2.7-1.5-3-2.9c0-0.2-0.1-0.5-0.1-0.7c-8.7,1.1-15.5,8.5-15.5,17.5c0,9.8,7.9,17.7,17.7,17.7    s17.7-7.9,17.7-17.7c0-1-0.1-1.9-0.3-2.9C75.7,60.7,83.6,52.8,83.6,43z M58.4,54.3c-0.9-0.6-1.6-1.2-2.3-2    C56.9,52.9,57.7,53.6,58.4,54.3z M48.5,77.1C41,77.1,35,71.1,35,63.6S41,50,48.5,50c0.4,0,0.8,0,1.2,0.1c2.2,5,6.6,8.7,11.9,10.1    c0.3,1.1,0.5,2.2,0.5,3.4C62.1,71.1,56,77.1,48.5,77.1z" />
</svg>
