<svg version="1.1" x="0px" y="0px" viewBox="0 0 95 95">
  <polygon
    points="26.3,27.4 26.3,37.5 32.2,37.5 32.2,33.3 44.3,33.3 44.3,64.7 40.4,64.7 40.4,70.6 54.4,70.6 54.4,64.7     50.2,64.7 50.2,33.3 62.6,33.3 62.6,37.5 68.5,37.5 68.5,27.4   " />
  <path
    d="M78.5,71.7V26.1c3.3-0.6,5.7-3.5,5.7-6.9c0-3.9-3.2-7.1-7.1-7.1c-3.4,0-6.3,2.5-6.9,5.7H24.7c-0.6-3.3-3.5-5.7-6.9-5.7    c-3.9,0-7.1,3.2-7.1,7.1c0,3.4,2.4,6.2,5.6,6.9v45.6c-3.2,0.7-5.6,3.5-5.6,6.9c0,3.9,3.2,7.1,7.1,7.1c3.4,0,6.2-2.4,6.9-5.6h45.6    c0.7,3.2,3.5,5.6,6.9,5.6c3.9,0,7.1-3.2,7.1-7.1C84.2,75.1,81.8,72.3,78.5,71.7z M70.3,77.1H24.7c-0.6-2.7-2.7-4.8-5.4-5.4V26.1    c2.6-0.6,4.7-2.6,5.4-5.2h45.7c0.6,2.6,2.6,4.6,5.2,5.2v45.7C72.9,72.4,70.9,74.5,70.3,77.1z" />
</svg>
