<svg version="1.1" x="0px" y="0px" viewBox="0 0 95 95">
  <polygon
    points="61.5,17.9 55.1,24.2 58.8,27.9 61.5,25.3 69.1,32.9 49.4,52.5 46.9,50 43.2,53.7 52,62.5 55.8,58.8 53.1,56.2     72.8,36.6 80.5,44.3 77.9,46.9 81.6,50.6 87.9,44.3   " />
  <path
    d="M76,87.7c-3.4,0-6.7-1.3-9.4-3.6l-2-1.7c-0.3-0.3-0.6-0.5-0.9-0.8L30.3,48.1c-1.4-1.4-2.9-2.8-4.4-4.1     c-2-1.7-4.4-2.6-6.8-2.7c-6.3,0-11.4,5.1-11.4,11.4H3.7c0-8.4,6.9-15.3,15.3-15.3c3.4,0,6.7,1.3,9.4,3.6c1.6,1.4,3.2,2.8,4.7,4.3     l33.5,33.5c0.2,0.2,0.4,0.4,0.7,0.6l2,1.7c2,1.7,4.4,2.6,6.8,2.7c6.3,0,11.4-5.1,11.4-11.4h3.9C91.3,80.8,84.5,87.7,76,87.7z" />
</svg>
