<svg version="1.1" x="0px" y="0px" viewBox="0 0 95 95">
  <polygon
    points="37.2,40.3 43.6,46.6 47.3,42.9 44.7,40.3 52.2,32.7 71.9,52.4 69.4,54.8 73.1,58.5 81.9,49.7 78.2,46 75.6,48.7     55.9,29 63.7,21.3 66.3,23.9 70,20.2 63.7,13.9   " />
  <path
    d="M76,82.7c-3.4,0-6.7-1.3-9.4-3.6l-2-1.7c-0.3-0.3-0.6-0.5-0.9-0.8L30.3,43.1c-1.4-1.4-2.9-2.8-4.4-4.1     c-2-1.7-4.4-2.6-6.8-2.7c-6.3,0-11.4,5.1-11.4,11.4H3.7c0-8.4,6.9-15.3,15.3-15.3c3.4,0,6.7,1.3,9.4,3.6c1.6,1.4,3.2,2.8,4.7,4.3     l33.5,33.5c0.2,0.2,0.4,0.4,0.7,0.6l2,1.7c2,1.7,4.4,2.6,6.8,2.7c6.3,0,11.4-5.1,11.4-11.4h3.9C91.3,75.8,84.5,82.7,76,82.7z" />
</svg>
