<svg version="1.1" x="0px" y="0px" viewBox="0 0 95 95">
  <polygon
    points="33.4,22.3 33.4,34 39.2,34 39.2,29.1 51.1,29.1 51.1,65.4 47.2,65.4 47.2,72.2 61,72.2 61,65.4 56.9,65.4     56.9,29.1 69,29.1 69,34 74.9,34 74.9,22.3   " />
  <path
    d="M75.7,82.3H33.9l-13-57.4c-0.7-3-0.2-6.3,1.5-8.8s4.1-4,6.8-4h49.9c2.7,0,5.1,1.4,6.8,3.9c1.6,2.5,2.2,5.6,1.6,8.7    L75.7,82.3z M38.3,75.6h32.8l10.7-52.4c0.2-1,0-2.1-0.5-2.9c-0.5-0.8-1.4-1.3-2.2-1.3H29.2c-0.9,0-1.7,0.5-2.3,1.3    c-0.5,0.8-0.7,1.9-0.5,2.9L38.3,75.6z" />
  <polygon points="12.9,73.6 12.9,13.8 10.7,13.8 10.7,73.6 3,73.6 11.8,82.3 20.6,73.6   " />
</svg>
