<svg class="svg-icon" style="width: 1em; height: 1em;vertical-align: middle;fill: currentColor;overflow: hidden;" viewBox="0 0 1024 1024" version="1.1" xmlns="http://www.w3.org/2000/svg"><path d="M384 768c-213.333333 0-384-170.666667-384-384s170.666667-384 384-384 384 170.666667 384 384S597.333333 768 384 768zM384 85.333333C217.6 85.333333 85.333333 217.6 85.333333 384s132.266667 298.666667 298.666667 298.666667 298.666667-132.266667 298.666667-298.666667S550.4 85.333333 384 85.333333z"  /><path d="M981.333333 1024c-12.8 0-21.333333-4.266667-29.866667-12.8L597.333333 657.066667c-17.066667-17.066667-17.066667-42.666667 0-59.733333s42.666667-17.066667 59.733333 0l354.133333 354.133333c17.066667 17.066667 17.066667 42.666667 0 59.733333C1002.666667 1019.733333 994.133333 1024 981.333333 1024z"  /><path d="M512 426.666667 256 426.666667c-25.6 0-42.666667-17.066667-42.666667-42.666667s17.066667-42.666667 42.666667-42.666667l256 0c25.6 0 42.666667 17.066667 42.666667 42.666667S537.6 426.666667 512 426.666667z"  /></svg>