<?xml version="1.0" encoding="UTF-8"?>
<svg id="katman_1" data-name="katman 1" xmlns="http://www.w3.org/2000/svg" version="1.1" viewBox="0 0 240 234">
  <defs>
    <style>
      .cls-1 {
        fill: #009b7d;
      }

      .cls-1, .cls-2 {
        stroke-width: 0px;
      }

      .cls-2 {
        fill: #002116;
      }

      .cls-3 {
        isolation: isolate;
      }
    </style>
  </defs>
  <path class="cls-2" d="M42.5,0h155c23.5,0,42.5,19,42.5,42.5v149c0,23.5-19,42.5-42.5,42.5H42.5c-23.5,0-42.5-19-42.5-42.5V42.5C0,19,19,0,42.5,0Z"/>
  <g class="cls-3">
    <g class="cls-3">
      <path class="cls-1" d="M148.5,111.8c.2,33.3-20.4,55-49.7,55s-49.9-23.2-49.9-54.5,20.3-54.4,49.9-54.4,49.6,24.1,49.7,53.9ZM99.4,149.6c18.2,0,29.1-15,29-37.3,0-22.5-11.1-37.2-29.9-37.2s-29.4,13.4-29.4,37.2,10.6,37.3,30.4,37.3Z"/>
      <path class="cls-1" d="M163.5,64c0-6.6,4.7-11.1,11.1-11.1s10.9,4.7,10.9,11.1-4.3,11.1-11.1,11.1-10.9-4.5-10.9-11.1ZM164.6,87c0-.8.5-1.1,1.3-1.1h17.1c1,0,1.3.2,1.3,1.1v76.9c0,1-.3,1.3-1.4,1.3h-16.6c-1.1,0-1.6-.5-1.6-1.4v-76.8Z"/>
    </g>
  </g>
</svg>